<svg width="100" height="100" viewBox="0 0 100 100" fill="none" xmlns="http://www.w3.org/2000/svg">
<rect width="100" height="100" rx="20" fill="white"/>
<line x1="19" y1="16.5" x2="66" y2="16.5" stroke="#D3D3D3"/>
<line x1="69" y1="16.5" x2="80" y2="16.5" stroke="#D3D3D3"/>
<line x1="19" y1="22.5" x2="33" y2="22.5" stroke="#D3D3D3"/>
<line x1="52" y1="19.5" x2="40" y2="19.5" stroke="#D3D3D3"/>
<line x1="19" y1="19.5" x2="38" y2="19.5" stroke="#D3D3D3"/>
<line x1="54" y1="19.5" x2="80" y2="19.5" stroke="#D3D3D3"/>
<line x1="35" y1="22.5" x2="80" y2="22.5" stroke="#D3D3D3"/>
<line x1="19" y1="51.5" x2="66" y2="51.5" stroke="#D3D3D3"/>
<line x1="69" y1="51.5" x2="80" y2="51.5" stroke="#D3D3D3"/>
<line x1="19" y1="57.5" x2="33" y2="57.5" stroke="#D3D3D3"/>
<line x1="52" y1="54.5" x2="40" y2="54.5" stroke="#D3D3D3"/>
<line x1="19" y1="54.5" x2="38" y2="54.5" stroke="#D3D3D3"/>
<line x1="54" y1="54.5" x2="80" y2="54.5" stroke="#D3D3D3"/>
<line x1="35" y1="57.5" x2="80" y2="57.5" stroke="#D3D3D3"/>
<line x1="19" y1="34.5" x2="66" y2="34.5" stroke="#D3D3D3"/>
<line x1="69" y1="34.5" x2="80" y2="34.5" stroke="#D3D3D3"/>
<line x1="19" y1="40.5" x2="33" y2="40.5" stroke="#D3D3D3"/>
<line x1="52" y1="37.5" x2="40" y2="37.5" stroke="#D3D3D3"/>
<line x1="19" y1="37.5" x2="38" y2="37.5" stroke="#D3D3D3"/>
<line x1="54" y1="37.5" x2="80" y2="37.5" stroke="#D3D3D3"/>
<line x1="35" y1="40.5" x2="80" y2="40.5" stroke="#D3D3D3"/>
<line x1="19" y1="69.5" x2="66" y2="69.5" stroke="#D3D3D3"/>
<line x1="69" y1="69.5" x2="80" y2="69.5" stroke="#D3D3D3"/>
<line x1="19" y1="75.5" x2="33" y2="75.5" stroke="#D3D3D3"/>
<line x1="52" y1="72.5" x2="40" y2="72.5" stroke="#D3D3D3"/>
<line x1="19" y1="72.5" x2="38" y2="72.5" stroke="#D3D3D3"/>
<line x1="54" y1="72.5" x2="80" y2="72.5" stroke="#D3D3D3"/>
<line x1="35" y1="75.5" x2="80" y2="75.5" stroke="#D3D3D3"/>
<line x1="19" y1="25.5" x2="66" y2="25.5" stroke="#D3D3D3"/>
<line x1="69" y1="25.5" x2="80" y2="25.5" stroke="#D3D3D3"/>
<line x1="19" y1="31.5" x2="33" y2="31.5" stroke="#D3D3D3"/>
<line x1="52" y1="28.5" x2="40" y2="28.5" stroke="#D3D3D3"/>
<line x1="19" y1="28.5" x2="38" y2="28.5" stroke="#D3D3D3"/>
<line x1="54" y1="28.5" x2="80" y2="28.5" stroke="#D3D3D3"/>
<line x1="35" y1="31.5" x2="80" y2="31.5" stroke="#D3D3D3"/>
<line x1="19" y1="60.5" x2="66" y2="60.5" stroke="#D3D3D3"/>
<line x1="69" y1="60.5" x2="80" y2="60.5" stroke="#D3D3D3"/>
<line x1="19" y1="66.5" x2="33" y2="66.5" stroke="#D3D3D3"/>
<line x1="52" y1="63.5" x2="40" y2="63.5" stroke="#D3D3D3"/>
<line x1="19" y1="63.5" x2="38" y2="63.5" stroke="#D3D3D3"/>
<line x1="54" y1="63.5" x2="80" y2="63.5" stroke="#D3D3D3"/>
<line x1="35" y1="66.5" x2="80" y2="66.5" stroke="#D3D3D3"/>
<line x1="19" y1="43.5" x2="66" y2="43.5" stroke="#D3D3D3"/>
<line x1="69" y1="43.5" x2="80" y2="43.5" stroke="#D3D3D3"/>
<line x1="19" y1="49.5" x2="33" y2="49.5" stroke="#D3D3D3"/>
<line x1="52" y1="46.5" x2="40" y2="46.5" stroke="#D3D3D3"/>
<line x1="19" y1="46.5" x2="38" y2="46.5" stroke="#D3D3D3"/>
<line x1="54" y1="46.5" x2="80" y2="46.5" stroke="#D3D3D3"/>
<line x1="35" y1="49.5" x2="80" y2="49.5" stroke="#D3D3D3"/>
<line x1="19" y1="78.5" x2="66" y2="78.5" stroke="#D3D3D3"/>
<line x1="69" y1="78.5" x2="80" y2="78.5" stroke="#D3D3D3"/>
<line x1="19" y1="84.5" x2="33" y2="84.5" stroke="#D3D3D3"/>
<line x1="52" y1="81.5" x2="40" y2="81.5" stroke="#D3D3D3"/>
<line x1="19" y1="81.5" x2="38" y2="81.5" stroke="#D3D3D3"/>
<line x1="54" y1="81.5" x2="80" y2="81.5" stroke="#D3D3D3"/>
<line x1="35" y1="84.5" x2="80" y2="84.5" stroke="#D3D3D3"/>
<g filter="url(#filter0_d_154_2)">
<path d="M34.7131 50.4545C34.7131 53.4848 34.1733 56.1222 33.0938 58.3665C32.0142 60.6013 30.5275 62.3343 28.6335 63.5653C26.7491 64.7869 24.5805 65.3977 22.1278 65.3977C19.6752 65.3977 17.5019 64.7869 15.608 63.5653C13.7235 62.3343 12.2415 60.6013 11.1619 58.3665C10.0919 56.1222 9.55682 53.4848 9.55682 50.4545C9.55682 47.4242 10.0919 44.7917 11.1619 42.5568C12.2415 40.3125 13.7282 38.5795 15.6222 37.358C17.5161 36.1269 19.6847 35.5114 22.1278 35.5114C24.5805 35.5114 26.7491 36.1269 28.6335 37.358C30.5275 38.5795 32.0142 40.3125 33.0938 42.5568C34.1733 44.7917 34.7131 47.4242 34.7131 50.4545ZM32.1278 50.4545C32.1278 47.8504 31.6922 45.6203 30.821 43.7642C29.9498 41.8987 28.7614 40.4735 27.2557 39.4886C25.75 38.5038 24.0407 38.0114 22.1278 38.0114C20.2244 38.0114 18.5199 38.5038 17.0142 39.4886C15.5085 40.4735 14.3153 41.8939 13.4347 43.75C12.5634 45.6061 12.1278 47.8409 12.1278 50.4545C12.1278 53.0587 12.5634 55.2888 13.4347 57.1449C14.3059 59.0009 15.4943 60.4261 17 61.4205C18.5057 62.4053 20.215 62.8977 22.1278 62.8977C24.0407 62.8977 25.75 62.4053 27.2557 61.4205C28.7708 60.4356 29.964 59.0152 30.8352 57.1591C31.7064 55.2936 32.1373 53.0587 32.1278 50.4545ZM41.1371 65V35.9091H50.5263C52.5907 35.9091 54.3142 36.3068 55.6967 37.1023C57.0888 37.8883 58.1352 38.9583 58.8359 40.3125C59.5462 41.6667 59.9013 43.1913 59.9013 44.8864C59.9013 46.5814 59.5509 48.1108 58.8501 49.4744C58.1494 50.8286 57.1077 51.9034 55.7251 52.6989C54.3426 53.4848 52.6238 53.8778 50.5689 53.8778H43.1825V51.4915H50.4979C52.0225 51.4915 53.2867 51.2074 54.2905 50.6392C55.2943 50.0616 56.0424 49.2756 56.5348 48.2812C57.0367 47.2869 57.2876 46.1553 57.2876 44.8864C57.2876 43.6174 57.0367 42.4858 56.5348 41.4915C56.0424 40.4972 55.2895 39.7159 54.2763 39.1477C53.2725 38.5795 51.9988 38.2955 50.4553 38.2955H43.7933V65H41.1371ZM74.6598 65H66.1371V35.9091H75.1712C77.9458 35.9091 80.3179 36.4867 82.2876 37.642C84.2668 38.7973 85.782 40.4545 86.8331 42.6136C87.8842 44.7727 88.4098 47.3627 88.4098 50.3835C88.4098 53.4328 87.87 56.0511 86.7905 58.2386C85.7204 60.4167 84.1579 62.0881 82.103 63.2528C80.0575 64.4176 77.5765 65 74.6598 65ZM68.7933 62.6136H74.5036C77.0036 62.6136 79.0964 62.1212 80.782 61.1364C82.4676 60.1515 83.7318 58.7453 84.5746 56.9176C85.4174 55.09 85.8388 52.9119 85.8388 50.3835C85.8293 47.8741 85.4126 45.715 84.5888 43.9062C83.7744 42.0975 82.5623 40.7102 80.9524 39.7443C79.352 38.7784 77.3729 38.2955 75.0149 38.2955H68.7933V62.6136Z" fill="black"/>
</g>
<defs>
<filter id="filter0_d_154_2" x="5.55676" y="35.5114" width="86.853" height="37.8864" filterUnits="userSpaceOnUse" color-interpolation-filters="sRGB">
<feFlood flood-opacity="0" result="BackgroundImageFix"/>
<feColorMatrix in="SourceAlpha" type="matrix" values="0 0 0 0 0 0 0 0 0 0 0 0 0 0 0 0 0 0 127 0" result="hardAlpha"/>
<feOffset dy="4"/>
<feGaussianBlur stdDeviation="2"/>
<feComposite in2="hardAlpha" operator="out"/>
<feColorMatrix type="matrix" values="0 0 0 0 0 0 0 0 0 0 0 0 0 0 0 0 0 0 0.25 0"/>
<feBlend mode="normal" in2="BackgroundImageFix" result="effect1_dropShadow_154_2"/>
<feBlend mode="normal" in="SourceGraphic" in2="effect1_dropShadow_154_2" result="shape"/>
</filter>
</defs>
</svg>
